<svg width="32" height="32" viewBox="0 0 32 32" fill="none" xmlns="http://www.w3.org/2000/svg">
<path fill-rule="evenodd" clip-rule="evenodd" d="M16 30C23.732 30 30 23.732 30 16C30 8.26801 23.732 2 16 2C8.26801 2 2 8.26801 2 16C2 23.732 8.26801 30 16 30ZM16 32C24.8366 32 32 24.8366 32 16C32 7.16344 24.8366 0 16 0C7.16344 0 0 7.16344 0 16C0 24.8366 7.16344 32 16 32Z" fill="white"/>
<path fill-rule="evenodd" clip-rule="evenodd" d="M27 7L6.00003 28L4.58582 26.5858L25.5858 5.58579L27 7Z" fill="white"/>
<path fill-rule="evenodd" clip-rule="evenodd" d="M16 17L26 27L24.5858 28.4142L14.5858 18.4142L16 17Z" fill="white"/>
<path fill-rule="evenodd" clip-rule="evenodd" d="M13 20L22 29L20.5858 30.4142L11.5858 21.4142L13 20Z" fill="white"/>
<path fill-rule="evenodd" clip-rule="evenodd" d="M10 23L17 30L15.5858 31.4142L8.58582 24.4142L10 23Z" fill="white"/>
<path fill-rule="evenodd" clip-rule="evenodd" d="M19 14L29 24L27.5858 25.4142L17.5858 15.4142L19 14Z" fill="white"/>
<path fill-rule="evenodd" clip-rule="evenodd" d="M22 11L31 20L29.5858 21.4142L20.5858 12.4142L22 11Z" fill="white"/>
<path fill-rule="evenodd" clip-rule="evenodd" d="M25 8L32 15L30.5858 16.4142L23.5858 9.41422L25 8Z" fill="white"/>
</svg>
