<svg width="38" height="24" viewBox="0 0 38 24" fill="none" xmlns="http://www.w3.org/2000/svg">
<path d="M7.79369 16.1364C7.16301 16.1364 6.61897 15.9972 6.16159 15.7188C5.70704 15.4375 5.35619 15.0455 5.10903 14.5426C4.86471 14.0369 4.74255 13.4489 4.74255 12.7784C4.74255 12.108 4.86471 11.517 5.10903 11.0057C5.35619 10.4915 5.69994 10.0909 6.14028 9.80398C6.58346 9.51421 7.10051 9.36932 7.69142 9.36932C8.03233 9.36932 8.36897 9.42614 8.70136 9.53978C9.03375 9.65341 9.3363 9.83807 9.60903 10.0938C9.88176 10.3466 10.0991 10.6818 10.261 11.0994C10.423 11.517 10.5039 12.0313 10.5039 12.642V13.0682H5.45846V12.1989H9.48119C9.48119 11.8296 9.40733 11.5 9.2596 11.2102C9.11471 10.9205 8.90733 10.6918 8.63744 10.5242C8.37039 10.3565 8.05505 10.2727 7.69142 10.2727C7.29085 10.2727 6.94426 10.3722 6.65164 10.571C6.36187 10.767 6.13886 11.0227 5.98261 11.3381C5.82636 11.6534 5.74824 11.9915 5.74824 12.3523V12.9318C5.74824 13.4261 5.83346 13.8452 6.00392 14.1889C6.17721 14.5298 6.41727 14.7898 6.72409 14.9688C7.03091 15.1449 7.38744 15.233 7.79369 15.233C8.05789 15.233 8.29653 15.196 8.5096 15.1222C8.72551 15.0455 8.91159 14.9318 9.06784 14.7813C9.22409 14.6278 9.34483 14.4375 9.43005 14.2102L10.4016 14.483C10.2994 14.8125 10.1275 15.1023 9.88602 15.3523C9.64454 15.5994 9.34625 15.7926 8.99113 15.9318C8.63602 16.0682 8.23687 16.1364 7.79369 16.1364Z" fill="#4E4E4E"/>
<path d="M13.0394 12.0625V16H12.0337V9.45455H13.0053V10.4773H13.0906C13.244 10.1449 13.4769 9.87785 13.7894 9.67614C14.1019 9.4716 14.5053 9.36932 14.9997 9.36932C15.4428 9.36932 15.8306 9.46023 16.163 9.64205C16.4954 9.82103 16.7539 10.0938 16.9386 10.4602C17.1232 10.8239 17.2156 11.2841 17.2156 11.8409V16H16.2099V11.9091C16.2099 11.3949 16.0764 10.9943 15.8093 10.7074C15.5423 10.4176 15.1758 10.2727 14.7099 10.2727C14.3889 10.2727 14.1019 10.3423 13.8491 10.4815C13.5991 10.6207 13.4016 10.8239 13.2568 11.0909C13.1119 11.358 13.0394 11.6818 13.0394 12.0625Z" fill="#4E4E4E"/>
<path d="M21.8999 9.45455V10.3068H18.5078V9.45455H21.8999ZM19.4965 7.88637H20.5021V14.125C20.5021 14.4091 20.5433 14.6222 20.6257 14.7642C20.7109 14.9034 20.8189 14.9972 20.9496 15.0455C21.0831 15.0909 21.2237 15.1136 21.3715 15.1136C21.4823 15.1136 21.5732 15.108 21.6442 15.0966C21.7152 15.0824 21.772 15.071 21.8146 15.0625L22.0192 15.9659C21.951 15.9915 21.8558 16.017 21.7337 16.0426C21.6115 16.071 21.4567 16.0852 21.2692 16.0852C20.9851 16.0852 20.7067 16.0242 20.434 15.902C20.1641 15.7798 19.9396 15.5938 19.7607 15.3438C19.5845 15.0938 19.4965 14.7784 19.4965 14.3977V7.88637Z" fill="#4E4E4E"/>
<path d="M26.0867 16.1364C25.456 16.1364 24.9119 15.9972 24.4546 15.7188C24 15.4375 23.6492 15.0455 23.402 14.5426C23.1577 14.0369 23.0355 13.4489 23.0355 12.7784C23.0355 12.108 23.1577 11.517 23.402 11.0057C23.6492 10.4915 23.9929 10.0909 24.4333 9.80398C24.8764 9.51421 25.3935 9.36932 25.9844 9.36932C26.3253 9.36932 26.6619 9.42614 26.9943 9.53978C27.3267 9.65341 27.6293 9.83807 27.902 10.0938C28.1747 10.3466 28.3921 10.6818 28.554 11.0994C28.7159 11.517 28.7969 12.0313 28.7969 12.642V13.0682H23.7514V12.1989H27.7742C27.7742 11.8296 27.7003 11.5 27.5526 11.2102C27.4077 10.9205 27.2003 10.6918 26.9304 10.5242C26.6634 10.3565 26.348 10.2727 25.9844 10.2727C25.5838 10.2727 25.2372 10.3722 24.9446 10.571C24.6548 10.767 24.4318 11.0227 24.2756 11.3381C24.1193 11.6534 24.0412 11.9915 24.0412 12.3523V12.9318C24.0412 13.4261 24.1264 13.8452 24.2969 14.1889C24.4702 14.5298 24.7102 14.7898 25.0171 14.9688C25.3239 15.1449 25.6804 15.233 26.0867 15.233C26.3509 15.233 26.5895 15.196 26.8026 15.1222C27.0185 15.0455 27.2046 14.9318 27.3608 14.7813C27.5171 14.6278 27.6378 14.4375 27.723 14.2102L28.6946 14.483C28.5923 14.8125 28.4205 15.1023 28.179 15.3523C27.9375 15.5994 27.6392 15.7926 27.2841 15.9318C26.929 16.0682 26.5298 16.1364 26.0867 16.1364Z" fill="#4E4E4E"/>
<path d="M30.3267 16V9.45455H31.2983V10.4432H31.3665C31.4858 10.1193 31.7017 9.85654 32.0142 9.65483C32.3267 9.45313 32.679 9.35228 33.071 9.35228C33.1449 9.35228 33.2372 9.3537 33.348 9.35654C33.4588 9.35938 33.5426 9.36364 33.5994 9.36932V10.392C33.5654 10.3835 33.4872 10.3707 33.3651 10.3537C33.2458 10.3338 33.1193 10.3239 32.9858 10.3239C32.6676 10.3239 32.3835 10.3906 32.1335 10.5242C31.8864 10.6548 31.6904 10.8367 31.5455 11.0696C31.4034 11.2997 31.3324 11.5625 31.3324 11.858V16H30.3267Z" fill="#4E4E4E"/>
<path fill-rule="evenodd" clip-rule="evenodd" d="M35 1H3C1.89543 1 1 1.89543 1 3V21C1 22.1046 1.89543 23 3 23H35C36.1046 23 37 22.1046 37 21V3C37 1.89543 36.1046 1 35 1ZM3 0C1.34315 0 0 1.34315 0 3V21C0 22.6569 1.34315 24 3 24H35C36.6569 24 38 22.6569 38 21V3C38 1.34315 36.6569 0 35 0H3Z" fill="#4E4E4E"/>
</svg>
