<svg width="74" height="24" viewBox="0 0 74 24" fill="none" xmlns="http://www.w3.org/2000/svg">
<path d="M46.6364 11.9545L45.9886 12.6108L43.2869 9.90909L43.2869 16.9062L42.3494 16.9062L42.3494 9.90909L39.6562 12.6108L39 11.9545L42.8182 8.13636L46.6364 11.9545Z" fill="#4E4E4E"/>
<path d="M60 12.8849L60.6477 12.2287L63.3494 14.9304L63.3494 7.93323L64.2869 7.93323L64.2869 14.9304L66.9801 12.2287L67.6364 12.8849L63.8182 16.7031L60 12.8849Z" fill="#4E4E4E"/>
<path d="M55.367 7L52.5545 17.4489H51.634L54.4465 7H55.367Z" fill="#4E4E4E"/>
<path d="M9.57956 16.1364C8.96592 16.1364 8.43751 15.9915 7.99433 15.7017C7.55115 15.4119 7.21024 15.0128 6.9716 14.5043C6.73297 13.9957 6.61365 13.4148 6.61365 12.7614C6.61365 12.0966 6.73581 11.5099 6.98012 11.0014C7.22728 10.49 7.57103 10.0909 8.01137 9.80397C8.45456 9.5142 8.9716 9.36931 9.56251 9.36931C10.0227 9.36931 10.4375 9.45454 10.8068 9.62499C11.1761 9.79545 11.4787 10.0341 11.7145 10.3409C11.9503 10.6477 12.0966 11.0057 12.1534 11.4148H11.1477C11.071 11.1165 10.9006 10.8523 10.6364 10.6222C10.375 10.3892 10.0227 10.2727 9.57956 10.2727C9.18751 10.2727 8.84376 10.375 8.54831 10.5795C8.25569 10.7812 8.027 11.0668 7.86223 11.4361C7.7003 11.8026 7.61933 12.2329 7.61933 12.7273C7.61933 13.2329 7.69887 13.6733 7.85797 14.0483C8.0199 14.4233 8.24717 14.7145 8.53978 14.9219C8.83524 15.1293 9.18183 15.2329 9.57956 15.2329C9.84092 15.2329 10.0781 15.1875 10.2912 15.0966C10.5043 15.0057 10.6847 14.875 10.8324 14.7045C10.9801 14.5341 11.0852 14.3295 11.1477 14.0909H12.1534C12.0966 14.4773 11.956 14.8253 11.7315 15.1349C11.51 15.4418 11.2159 15.6861 10.8494 15.8679C10.4858 16.0469 10.0625 16.1364 9.57956 16.1364Z" fill="#4E4E4E"/>
<path d="M16.4702 9.45454V10.3068H13.0781V9.45454H16.4702ZM14.0668 7.88636H15.0725V14.125C15.0725 14.4091 15.1136 14.6222 15.196 14.7642C15.2813 14.9034 15.3892 14.9972 15.5199 15.0454C15.6534 15.0909 15.794 15.1136 15.9418 15.1136C16.0526 15.1136 16.1435 15.1079 16.2145 15.0966C16.2855 15.0824 16.3423 15.071 16.385 15.0625L16.5895 15.9659C16.5213 15.9915 16.4261 16.017 16.304 16.0426C16.1818 16.071 16.027 16.0852 15.8395 16.0852C15.5554 16.0852 15.277 16.0241 15.0043 15.902C14.7344 15.7798 14.51 15.5937 14.331 15.3437C14.1548 15.0937 14.0668 14.7784 14.0668 14.3977V7.88636Z" fill="#4E4E4E"/>
<path d="M17.983 16V9.45454H18.9546V10.4432H19.0227C19.1421 10.1193 19.358 9.85653 19.6705 9.65482C19.983 9.45312 20.3352 9.35227 20.7273 9.35227C20.8011 9.35227 20.8935 9.35369 21.0043 9.35653C21.1151 9.35937 21.1989 9.36363 21.2557 9.36931V10.392C21.2216 10.3835 21.1435 10.3707 21.0213 10.3537C20.902 10.3338 20.7756 10.3239 20.6421 10.3239C20.3239 10.3239 20.0398 10.3906 19.7898 10.5241C19.5426 10.6548 19.3466 10.8366 19.2017 11.0696C19.0597 11.2997 18.9886 11.5625 18.9886 11.8579V16H17.983Z" fill="#4E4E4E"/>
<path d="M23.4535 7.27272V16H22.4478V7.27272H23.4535Z" fill="#4E4E4E"/>
<path d="M31.2273 15.4034V9.7784H32.1818V15.4034H31.2273ZM28.8921 13.0682V12.1136H34.5171V13.0682H28.8921Z" fill="#4E4E4E"/>
<path fill-rule="evenodd" clip-rule="evenodd" d="M71 1H3C1.89543 1 1 1.89543 1 3V21C1 22.1046 1.89543 23 3 23H71C72.1046 23 73 22.1046 73 21V3C73 1.89543 72.1046 1 71 1ZM3 0C1.34315 0 0 1.34315 0 3V21C0 22.6569 1.34314 24 3 24H71C72.6569 24 74 22.6569 74 21V3C74 1.34315 72.6569 0 71 0H3Z" fill="#4E4E4E"/>
</svg>
