<svg width="47" height="24" viewBox="0 0 47 24" fill="none" xmlns="http://www.w3.org/2000/svg">
<path d="M12.0412 10.9205L11.1378 11.1761C11.081 11.0256 10.9972 10.8793 10.8864 10.7372C10.7784 10.5923 10.6307 10.473 10.4432 10.3793C10.2557 10.2855 10.0156 10.2386 9.72301 10.2386C9.32244 10.2386 8.98863 10.331 8.72159 10.5156C8.45738 10.6974 8.32528 10.929 8.32528 11.2102C8.32528 11.4602 8.41619 11.6577 8.59801 11.8026C8.77982 11.9474 9.06391 12.0682 9.45028 12.1648L10.4219 12.4034C11.0071 12.5455 11.4432 12.7628 11.7301 13.0554C12.017 13.3452 12.1605 13.7187 12.1605 14.1761C12.1605 14.5511 12.0526 14.8864 11.8366 15.1818C11.6236 15.4773 11.3253 15.7102 10.9418 15.8807C10.5582 16.0511 10.1122 16.1364 9.60369 16.1364C8.93607 16.1364 8.38352 15.9915 7.94602 15.7017C7.50852 15.4119 7.23153 14.9886 7.11505 14.4318L8.0696 14.1932C8.16051 14.5455 8.33238 14.8097 8.58522 14.9858C8.8409 15.1619 9.17471 15.25 9.58664 15.25C10.0554 15.25 10.4276 15.1506 10.7031 14.9517C10.9815 14.75 11.1207 14.5085 11.1207 14.2273C11.1207 14 11.0412 13.8097 10.8821 13.6562C10.723 13.5 10.4787 13.3835 10.1491 13.3068L9.05823 13.0511C8.4588 12.9091 8.01846 12.6889 7.73721 12.3906C7.4588 12.0895 7.3196 11.7131 7.3196 11.2614C7.3196 10.892 7.42329 10.5653 7.63068 10.2812C7.8409 9.99716 8.12641 9.77415 8.48721 9.61221C8.85085 9.45028 9.26278 9.36932 9.72301 9.36932C10.3707 9.36932 10.8793 9.51136 11.2486 9.79545C11.6207 10.0795 11.8849 10.4545 12.0412 10.9205Z" fill="#4E4E4E"/>
<path d="M13.6744 18.4545V9.45454H14.6459V10.4943H14.7653C14.8391 10.3807 14.9414 10.2358 15.0721 10.0597C15.2056 9.88068 15.3959 9.72159 15.6431 9.58238C15.8931 9.44034 16.2312 9.36932 16.6573 9.36932C17.2084 9.36932 17.6942 9.5071 18.1147 9.78267C18.5352 10.0582 18.8633 10.4489 19.0991 10.9545C19.3349 11.4602 19.4528 12.0568 19.4528 12.7443C19.4528 13.4375 19.3349 14.0384 19.0991 14.5469C18.8633 15.0526 18.5366 15.4446 18.119 15.723C17.7013 15.9986 17.2198 16.1364 16.6744 16.1364C16.2539 16.1364 15.9173 16.0668 15.6644 15.9276C15.4116 15.7855 15.217 15.625 15.0806 15.446C14.9442 15.2642 14.8391 15.1136 14.7653 14.9943H14.68V18.4545H13.6744ZM14.663 12.7273C14.663 13.2216 14.7354 13.6577 14.8803 14.0355C15.0252 14.4105 15.2369 14.7045 15.5153 14.9176C15.7937 15.1278 16.1346 15.233 16.538 15.233C16.9584 15.233 17.3093 15.1222 17.5905 14.9006C17.8746 14.6761 18.0877 14.375 18.2298 13.9972C18.3746 13.6165 18.4471 13.1932 18.4471 12.7273C18.4471 12.267 18.3761 11.8523 18.234 11.483C18.0948 11.1108 17.8832 10.8168 17.5991 10.6009C17.3178 10.3821 16.9641 10.2727 16.538 10.2727C16.1289 10.2727 15.7852 10.3764 15.5067 10.5838C15.2283 10.7884 15.0181 11.0753 14.8761 11.4446C14.734 11.8111 14.663 12.2386 14.663 12.7273Z" fill="#4E4E4E"/>
<path d="M22.913 16.1534C22.4982 16.1534 22.1218 16.0753 21.7837 15.919C21.4457 15.7599 21.1772 15.5312 20.9783 15.233C20.7795 14.9318 20.68 14.5682 20.68 14.142C20.68 13.767 20.7539 13.4631 20.9016 13.2301C21.0494 12.9943 21.2468 12.8097 21.494 12.6761C21.7411 12.5426 22.0138 12.4432 22.3121 12.3778C22.6133 12.3097 22.9158 12.2557 23.2198 12.2159C23.6175 12.1648 23.94 12.1264 24.1871 12.1009C24.4371 12.0724 24.619 12.0256 24.7326 11.9602C24.8491 11.8949 24.9073 11.7812 24.9073 11.6193V11.5852C24.9073 11.1648 24.7923 10.8381 24.5621 10.6051C24.3349 10.3722 23.9897 10.2557 23.5266 10.2557C23.0465 10.2557 22.6701 10.3608 22.3974 10.571C22.1246 10.7812 21.9329 11.0057 21.8221 11.2443L20.8675 10.9034C21.038 10.5057 21.2653 10.196 21.5494 9.97443C21.8363 9.75 22.1488 9.59375 22.4869 9.50568C22.8278 9.41477 23.163 9.36932 23.4925 9.36932C23.7028 9.36932 23.9442 9.39488 24.217 9.44602C24.4925 9.49432 24.7582 9.59517 25.0138 9.74858C25.2724 9.90199 25.4869 10.1335 25.6573 10.4432C25.8278 10.7528 25.913 11.1676 25.913 11.6875V16H24.9073V15.1136H24.8562C24.788 15.2557 24.6744 15.4077 24.5153 15.5696C24.3562 15.7315 24.1445 15.8693 23.8803 15.983C23.6161 16.0966 23.2937 16.1534 22.913 16.1534ZM23.0664 15.25C23.4641 15.25 23.7994 15.1719 24.0721 15.0156C24.3477 14.8594 24.555 14.6577 24.6942 14.4105C24.8363 14.1633 24.9073 13.9034 24.9073 13.6307V12.7102C24.8647 12.7614 24.7709 12.8082 24.6261 12.8509C24.484 12.8906 24.3192 12.9261 24.1317 12.9574C23.9471 12.9858 23.7667 13.0114 23.5905 13.0341C23.4173 13.054 23.2766 13.071 23.1687 13.0852C22.9073 13.1193 22.663 13.1747 22.4357 13.2514C22.2113 13.3253 22.0295 13.4375 21.8903 13.5881C21.7539 13.7358 21.6857 13.9375 21.6857 14.1932C21.6857 14.5426 21.815 14.8068 22.0735 14.9858C22.3349 15.1619 22.6658 15.25 23.0664 15.25Z" fill="#4E4E4E"/>
<path d="M30.4077 16.1364C29.794 16.1364 29.2656 15.9915 28.8224 15.7017C28.3793 15.4119 28.0383 15.0128 27.7997 14.5043C27.5611 13.9957 27.4418 13.4148 27.4418 12.7614C27.4418 12.0966 27.5639 11.5099 27.8082 11.0014C28.0554 10.4901 28.3991 10.0909 28.8395 9.80398C29.2827 9.5142 29.7997 9.36932 30.3906 9.36932C30.8508 9.36932 31.2656 9.45454 31.6349 9.625C32.0043 9.79545 32.3068 10.0341 32.5426 10.3409C32.7784 10.6477 32.9247 11.0057 32.9815 11.4148H31.9758C31.8991 11.1165 31.7287 10.8523 31.4645 10.6222C31.2031 10.3892 30.8508 10.2727 30.4077 10.2727C30.0156 10.2727 29.6719 10.375 29.3764 10.5795C29.0838 10.7812 28.8551 11.0668 28.6903 11.4361C28.5284 11.8026 28.4474 12.233 28.4474 12.7273C28.4474 13.233 28.527 13.6733 28.6861 14.0483C28.848 14.4233 29.0753 14.7145 29.3679 14.9219C29.6633 15.1293 30.0099 15.233 30.4077 15.233C30.669 15.233 30.9062 15.1875 31.1193 15.0966C31.3324 15.0057 31.5128 14.875 31.6605 14.7045C31.8082 14.5341 31.9133 14.3295 31.9758 14.0909H32.9815C32.9247 14.4773 32.7841 14.8253 32.5597 15.1349C32.3381 15.4418 32.044 15.6861 31.6776 15.8679C31.3139 16.0469 30.8906 16.1364 30.4077 16.1364Z" fill="#4E4E4E"/>
<path d="M37.196 16.1364C36.5653 16.1364 36.0213 15.9972 35.5639 15.7187C35.1094 15.4375 34.7585 15.0455 34.5114 14.5426C34.267 14.0369 34.1449 13.4489 34.1449 12.7784C34.1449 12.108 34.267 11.517 34.5114 11.0057C34.7585 10.4915 35.1023 10.0909 35.5426 9.80398C35.9858 9.5142 36.5028 9.36932 37.0937 9.36932C37.4347 9.36932 37.7713 9.42613 38.1037 9.53977C38.4361 9.65341 38.7386 9.83807 39.0114 10.0937C39.2841 10.3466 39.5014 10.6818 39.6633 11.0994C39.8253 11.517 39.9062 12.0312 39.9062 12.642V13.0682H34.8608V12.1989H38.8835C38.8835 11.8295 38.8097 11.5 38.6619 11.2102C38.517 10.9205 38.3097 10.6918 38.0398 10.5241C37.7727 10.3565 37.4574 10.2727 37.0937 10.2727C36.6932 10.2727 36.3466 10.3722 36.054 10.571C35.7642 10.767 35.5412 11.0227 35.3849 11.3381C35.2287 11.6534 35.1506 11.9915 35.1506 12.3523V12.9318C35.1506 13.4261 35.2358 13.8452 35.4062 14.1889C35.5795 14.5298 35.8196 14.7898 36.1264 14.9687C36.4332 15.1449 36.7898 15.233 37.196 15.233C37.4602 15.233 37.6989 15.196 37.9119 15.1222C38.1278 15.0455 38.3139 14.9318 38.4702 14.7812C38.6264 14.6278 38.7472 14.4375 38.8324 14.2102L39.804 14.483C39.7017 14.8125 39.5298 15.1023 39.2883 15.3523C39.0469 15.5994 38.7486 15.7926 38.3935 15.9318C38.0383 16.0682 37.6392 16.1364 37.196 16.1364Z" fill="#4E4E4E"/>
<path fill-rule="evenodd" clip-rule="evenodd" d="M44 1H3C1.89543 1 1 1.89543 1 3V21C1 22.1046 1.89543 23 3 23H44C45.1046 23 46 22.1046 46 21V3C46 1.89543 45.1046 1 44 1ZM3 0C1.34315 0 0 1.34315 0 3V21C0 22.6569 1.34315 24 3 24H44C45.6569 24 47 22.6569 47 21V3C47 1.34315 45.6569 0 44 0H3Z" fill="#4E4E4E"/>
</svg>
