<svg width="17" height="24" viewBox="0 0 17 24" fill="none" xmlns="http://www.w3.org/2000/svg">
<path d="M10.367 6.86365L7.55449 17.3125H6.63403L9.44653 6.86365H10.367Z" fill="#4E4E4E"/>
<path fill-rule="evenodd" clip-rule="evenodd" d="M14 1H3C1.89543 1 1 1.89543 1 3V21C1 22.1046 1.89543 23 3 23H14C15.1046 23 16 22.1046 16 21V3C16 1.89543 15.1046 1 14 1ZM3 0C1.34315 0 0 1.34315 0 3V21C0 22.6569 1.34315 24 3 24H14C15.6569 24 17 22.6569 17 21V3C17 1.34315 15.6569 0 14 0H3Z" fill="#4E4E4E"/>
</svg>
