<svg width="41" height="24" viewBox="0 0 41 24" fill="none" xmlns="http://www.w3.org/2000/svg">
<path d="M13.6364 11.8182L12.9886 12.4744L10.2869 9.77274L10.2869 16.7699L9.34943 16.7699L9.34943 9.77274L6.65625 12.4744L6 11.8182L9.81818 8.00001L13.6364 11.8182Z" fill="#4E4E4E"/>
<path d="M27 12.7486L27.6477 12.0923L30.3494 14.794L30.3494 7.79688L31.2869 7.79688L31.2869 14.794L33.9801 12.0923L34.6364 12.7486L30.8182 16.5668L27 12.7486Z" fill="#4E4E4E"/>
<path d="M22.367 6.86365L19.5545 17.3125H18.634L21.4465 6.86365H22.367Z" fill="#4E4E4E"/>
<path fill-rule="evenodd" clip-rule="evenodd" d="M38 1H3C1.89543 1 1 1.89543 1 3V21C1 22.1046 1.89543 23 3 23H38C39.1046 23 40 22.1046 40 21V3C40 1.89543 39.1046 1 38 1ZM3 0C1.34315 0 0 1.34315 0 3V21C0 22.6569 1.34315 24 3 24H38C39.6569 24 41 22.6569 41 21V3C41 1.34315 39.6569 0 38 0H3Z" fill="#4E4E4E"/>
</svg>
