<svg width="44" height="24" viewBox="0 0 44 24" fill="none" xmlns="http://www.w3.org/2000/svg">
<path d="M7.62057 16.1364C7.07512 16.1364 6.59358 15.9986 6.17597 15.723C5.75836 15.4446 5.43165 15.0526 5.19586 14.5469C4.96006 14.0383 4.84216 13.4375 4.84216 12.7443C4.84216 12.0568 4.96006 11.4602 5.19586 10.9545C5.43165 10.4489 5.75978 10.0582 6.18023 9.78266C6.60069 9.5071 7.08648 9.36931 7.63762 9.36931C8.06375 9.36931 8.4004 9.44033 8.64756 9.58238C8.89756 9.72158 9.0879 9.88068 9.21858 10.0597C9.35211 10.2358 9.4558 10.3807 9.52966 10.4943H9.61489V7.27272H10.6206V16H9.64898V14.9943H9.52966C9.4558 15.1136 9.35069 15.2642 9.21432 15.446C9.07796 15.625 8.88336 15.7855 8.63052 15.9276C8.37767 16.0668 8.04103 16.1364 7.62057 16.1364ZM7.75694 15.2329C8.16034 15.2329 8.50125 15.1278 8.77966 14.9176C9.05807 14.7045 9.26972 14.4105 9.41461 14.0355C9.55949 13.6577 9.63194 13.2216 9.63194 12.7273C9.63194 12.2386 9.56091 11.8111 9.41887 11.4446C9.27682 11.0753 9.06659 10.7883 8.78819 10.5838C8.50978 10.3764 8.16603 10.2727 7.75694 10.2727C7.3308 10.2727 6.97569 10.3821 6.69159 10.6008C6.41034 10.8168 6.1987 11.1108 6.05665 11.4829C5.91745 11.8523 5.84784 12.267 5.84784 12.7273C5.84784 13.1932 5.91887 13.6165 6.06091 13.9972C6.2058 14.375 6.41887 14.6761 6.70012 14.9006C6.98421 15.1222 7.33648 15.2329 7.75694 15.2329Z" fill="#4E4E4E"/>
<path d="M15.3464 16.1364C14.7157 16.1364 14.1717 15.9972 13.7143 15.7187C13.2598 15.4375 12.9089 15.0454 12.6618 14.5426C12.4174 14.0369 12.2953 13.4489 12.2953 12.7784C12.2953 12.1079 12.4174 11.517 12.6618 11.0057C12.9089 10.4915 13.2527 10.0909 13.693 9.80397C14.1362 9.5142 14.6532 9.36931 15.2442 9.36931C15.5851 9.36931 15.9217 9.42613 16.2541 9.53977C16.5865 9.6534 16.889 9.83806 17.1618 10.0937C17.4345 10.3466 17.6518 10.6818 17.8138 11.0994C17.9757 11.517 18.0567 12.0312 18.0567 12.642V13.0682H13.0112V12.1989H17.0339C17.0339 11.8295 16.9601 11.5 16.8123 11.2102C16.6674 10.9204 16.4601 10.6918 16.1902 10.5241C15.9231 10.3565 15.6078 10.2727 15.2442 10.2727C14.8436 10.2727 14.497 10.3722 14.2044 10.571C13.9146 10.767 13.6916 11.0227 13.5353 11.3381C13.3791 11.6534 13.301 11.9915 13.301 12.3523V12.9318C13.301 13.4261 13.3862 13.8452 13.5567 14.1889C13.7299 14.5298 13.97 14.7898 14.2768 14.9687C14.5836 15.1449 14.9402 15.2329 15.3464 15.2329C15.6106 15.2329 15.8493 15.196 16.0623 15.1222C16.2782 15.0454 16.4643 14.9318 16.6206 14.7812C16.7768 14.6278 16.8976 14.4375 16.9828 14.2102L17.9544 14.4829C17.8521 14.8125 17.6802 15.1023 17.4388 15.3523C17.1973 15.5994 16.899 15.7926 16.5439 15.9318C16.1888 16.0682 15.7896 16.1364 15.3464 16.1364Z" fill="#4E4E4E"/>
<path d="M20.5922 7.27272V16H19.5865V7.27272H20.5922Z" fill="#4E4E4E"/>
<path d="M25.1785 16.1364C24.5478 16.1364 24.0037 15.9972 23.5464 15.7187C23.0918 15.4375 22.741 15.0454 22.4938 14.5426C22.2495 14.0369 22.1273 13.4489 22.1273 12.7784C22.1273 12.1079 22.2495 11.517 22.4938 11.0057C22.741 10.4915 23.0847 10.0909 23.525 9.80397C23.9682 9.5142 24.4853 9.36931 25.0762 9.36931C25.4171 9.36931 25.7537 9.42613 26.0861 9.53977C26.4185 9.6534 26.7211 9.83806 26.9938 10.0937C27.2665 10.3466 27.4839 10.6818 27.6458 11.0994C27.8077 11.517 27.8887 12.0312 27.8887 12.642V13.0682H22.8432V12.1989H26.866C26.866 11.8295 26.7921 11.5 26.6444 11.2102C26.4995 10.9204 26.2921 10.6918 26.0222 10.5241C25.7552 10.3565 25.4398 10.2727 25.0762 10.2727C24.6756 10.2727 24.329 10.3722 24.0364 10.571C23.7466 10.767 23.5236 11.0227 23.3674 11.3381C23.2111 11.6534 23.133 11.9915 23.133 12.3523V12.9318C23.133 13.4261 23.2182 13.8452 23.3887 14.1889C23.562 14.5298 23.802 14.7898 24.1089 14.9687C24.4157 15.1449 24.7722 15.2329 25.1785 15.2329C25.4427 15.2329 25.6813 15.196 25.8944 15.1222C26.1103 15.0454 26.2964 14.9318 26.4526 14.7812C26.6089 14.6278 26.7296 14.4375 26.8148 14.2102L27.7864 14.4829C27.6841 14.8125 27.5123 15.1023 27.2708 15.3523C27.0293 15.5994 26.731 15.7926 26.3759 15.9318C26.0208 16.0682 25.6216 16.1364 25.1785 16.1364Z" fill="#4E4E4E"/>
<path d="M32.2651 9.45454V10.3068H28.8731V9.45454H32.2651ZM29.8617 7.88636H30.8674V14.125C30.8674 14.4091 30.9086 14.6222 30.991 14.7642C31.0762 14.9034 31.1841 14.9972 31.3148 15.0454C31.4483 15.0909 31.589 15.1136 31.7367 15.1136C31.8475 15.1136 31.9384 15.1079 32.0094 15.0966C32.0804 15.0824 32.1373 15.071 32.1799 15.0625L32.3844 15.9659C32.3162 15.9915 32.2211 16.017 32.0989 16.0426C31.9768 16.071 31.8219 16.0852 31.6344 16.0852C31.3503 16.0852 31.0719 16.0241 30.7992 15.902C30.5293 15.7798 30.3049 15.5937 30.1259 15.3437C29.9498 15.0937 29.8617 14.7784 29.8617 14.3977V7.88636Z" fill="#4E4E4E"/>
<path d="M36.4519 16.1364C35.8212 16.1364 35.2772 15.9972 34.8198 15.7187C34.3652 15.4375 34.0144 15.0454 33.7672 14.5426C33.5229 14.0369 33.4008 13.4489 33.4008 12.7784C33.4008 12.1079 33.5229 11.517 33.7672 11.0057C34.0144 10.4915 34.3581 10.0909 34.7985 9.80397C35.2417 9.5142 35.7587 9.36931 36.3496 9.36931C36.6905 9.36931 37.0272 9.42613 37.3596 9.53977C37.692 9.6534 37.9945 9.83806 38.2672 10.0937C38.54 10.3466 38.7573 10.6818 38.9192 11.0994C39.0812 11.517 39.1621 12.0312 39.1621 12.642V13.0682H34.1167V12.1989H38.1394C38.1394 11.8295 38.0655 11.5 37.9178 11.2102C37.7729 10.9204 37.5655 10.6918 37.2956 10.5241C37.0286 10.3565 36.7133 10.2727 36.3496 10.2727C35.9491 10.2727 35.6025 10.3722 35.3098 10.571C35.0201 10.767 34.7971 11.0227 34.6408 11.3381C34.4846 11.6534 34.4064 11.9915 34.4064 12.3523V12.9318C34.4064 13.4261 34.4917 13.8452 34.6621 14.1889C34.8354 14.5298 35.0755 14.7898 35.3823 14.9687C35.6891 15.1449 36.0456 15.2329 36.4519 15.2329C36.7161 15.2329 36.9547 15.196 37.1678 15.1222C37.3837 15.0454 37.5698 14.9318 37.726 14.7812C37.8823 14.6278 38.003 14.4375 38.0883 14.2102L39.0598 14.4829C38.9576 14.8125 38.7857 15.1023 38.5442 15.3523C38.3027 15.5994 38.0045 15.7926 37.6493 15.9318C37.2942 16.0682 36.8951 16.1364 36.4519 16.1364Z" fill="#4E4E4E"/>
<path fill-rule="evenodd" clip-rule="evenodd" d="M41 1H3C1.89543 1 1 1.89543 1 3V21C1 22.1046 1.89543 23 3 23H41C42.1046 23 43 22.1046 43 21V3C43 1.89543 42.1046 1 41 1ZM3 0C1.34315 0 0 1.34315 0 3V21C0 22.6569 1.34315 24 3 24H41C42.6569 24 44 22.6569 44 21V3C44 1.34315 42.6569 0 41 0H3Z" fill="#4E4E4E"/>
</svg>
