<svg width="70" height="23" viewBox="0 0 70 23" fill="none" xmlns="http://www.w3.org/2000/svg">
<path d="M0.448853 18V0.545471H4.07953V9.87786H4.27556L8.46874 4.90911H12.6364L7.7784 10.5767L12.8835 18H8.63067L5.05965 12.7244L4.07953 13.8409V18H0.448853Z" fill="white"/>
<path d="M19.8444 18.2557C18.5035 18.2557 17.3473 17.983 16.3757 17.4375C15.4041 16.8864 14.6569 16.108 14.1342 15.1023C13.6115 14.0909 13.3501 12.8949 13.3501 11.5142C13.3501 10.1676 13.6115 8.98581 14.1342 7.96877C14.6569 6.95172 15.3927 6.15911 16.3416 5.59093C17.2962 5.02274 18.4155 4.73865 19.6996 4.73865C20.853 4.73865 21.8927 4.98297 22.8189 5.47161C23.7507 5.96024 24.4893 6.69888 25.0348 7.68752C25.5802 8.67047 25.853 9.90343 25.853 11.3864V12.3835H16.9382V12.3921C16.9382 13.3693 17.2052 14.1392 17.7393 14.7017C18.2734 15.2642 18.995 15.5455 19.9041 15.5455C20.5121 15.5455 21.0376 15.4176 21.4808 15.1619C21.924 14.9063 22.2365 14.5284 22.4183 14.0284L25.7763 14.25C25.5206 15.4659 24.8729 16.4375 23.8331 17.1648C22.7933 17.8921 21.4638 18.2557 19.8444 18.2557ZM16.9382 10.1335H22.4354C22.4297 9.35513 22.1797 8.71309 21.6854 8.2074C21.191 7.70172 20.549 7.44888 19.7592 7.44888C18.9524 7.44888 18.2905 7.71024 17.7734 8.23297C17.2564 8.7557 16.978 9.38922 16.9382 10.1335Z" fill="white"/>
<path d="M30.2528 22.8835C29.7926 22.8835 29.3608 22.8494 28.9574 22.7813C28.5596 22.7131 28.2301 22.625 27.9687 22.5171L28.7869 19.7983C29.429 19.9972 29.9687 20.0483 30.4062 19.9517C30.8494 19.8608 31.1989 19.5199 31.4545 18.929L31.6676 18.375L26.9716 4.90911H30.7898L33.5 14.5227H33.6364L36.3721 4.90911L40.2159 4.92615L35.1278 19.4148C34.7642 20.4602 34.1989 21.2983 33.4318 21.929C32.6648 22.5654 31.6051 22.8835 30.2528 22.8835Z" fill="white"/>
<path d="M46.4524 18.2131C45.4581 18.2131 44.5604 17.9574 43.7592 17.446C42.9581 16.929 42.3217 16.1705 41.8501 15.1705C41.3785 14.1648 41.1427 12.9318 41.1427 11.4716C41.1427 9.97161 41.3842 8.72445 41.8672 7.73013C42.3558 6.73013 43.0007 5.98297 43.8018 5.48865C44.6087 4.98865 45.4893 4.73865 46.4439 4.73865C47.1768 4.73865 47.7876 4.86365 48.2763 5.11365C48.7706 5.35797 49.1683 5.66195 49.4694 6.02559C49.7763 6.38922 50.0092 6.75002 50.1683 7.10797H50.2791V0.545471H53.9013V18H50.3217V15.9034H50.1683C50.0035 16.2671 49.7649 16.6279 49.4524 16.9858C49.1399 17.3381 48.7365 17.6307 48.2422 17.8637C47.7535 18.0966 47.1569 18.2131 46.4524 18.2131ZM47.603 15.3239C48.478 15.3239 49.1541 14.9716 49.6314 14.2671C50.1143 13.5568 50.3558 12.6193 50.3558 11.4546C50.3558 10.2841 50.1172 9.35513 49.6399 8.66763C49.1626 7.97445 48.4837 7.62786 47.603 7.62786C46.7052 7.62786 46.0206 7.98297 45.549 8.6932C45.0831 9.39774 44.8501 10.3182 44.8501 11.4546C44.8501 12.5966 45.0859 13.5284 45.5575 14.25C46.0291 14.9659 46.7109 15.3239 47.603 15.3239Z" fill="white"/>
<path d="M62.8011 18.2557C61.4773 18.2557 60.3324 17.9744 59.3665 17.4119C58.4062 16.8438 57.6648 16.054 57.142 15.0426C56.6193 14.0256 56.3579 12.8466 56.3579 11.5057C56.3579 10.1534 56.6193 8.97161 57.142 7.96024C57.6648 6.9432 58.4062 6.15343 59.3665 5.59093C60.3324 5.02274 61.4773 4.73865 62.8011 4.73865C64.125 4.73865 65.267 5.02274 66.2273 5.59093C67.1932 6.15343 67.9375 6.9432 68.4602 7.96024C68.9829 8.97161 69.2443 10.1534 69.2443 11.5057C69.2443 12.8466 68.9829 14.0256 68.4602 15.0426C67.9375 16.054 67.1932 16.8438 66.2273 17.4119C65.267 17.9744 64.125 18.2557 62.8011 18.2557ZM62.8182 15.4432C63.7159 15.4432 64.3949 15.0682 64.8551 14.3182C65.321 13.5682 65.554 12.6222 65.554 11.4801C65.554 10.3381 65.321 9.39206 64.8551 8.64206C64.3949 7.88638 63.7159 7.50854 62.8182 7.50854C61.9034 7.50854 61.2131 7.88638 60.7471 8.64206C60.2812 9.39206 60.0483 10.3381 60.0483 11.4801C60.0483 12.6222 60.2812 13.5682 60.7471 14.3182C61.2131 15.0682 61.9034 15.4432 62.8182 15.4432Z" fill="white"/>
</svg>
